<svg preserveAspectRatio="xMidYMid meet" width="348" height="226" overflow="visible" style="display: block;" viewBox="0 0 348.001 225.517" fill="none" xmlns="http://www.w3.org/2000/svg">
<g id="Group">
<path id="Vector" d="M338.081 198.363H7.78514C3.48544 198.363 0 194.878 0 190.578V164.54H348V188.445C348 193.922 343.559 198.363 338.081 198.363Z" fill="var(--fill-0, #399AEA)"/>
<path id="Vector_2" d="M338.08 198.363H246.984V61.165H304.712C307.719 61.165 310.601 62.3694 312.714 64.5084L344.753 96.9424C346.833 99.0479 347.999 101.888 347.999 104.848V188.445C347.999 193.922 343.558 198.363 338.08 198.363Z" fill="var(--fill-0, #61AFF6)"/>
<path id="Vector_3" d="M344.755 96.9424L312.717 64.5084C311.67 63.4492 310.424 62.6083 309.05 62.0344C307.677 61.4604 306.203 61.1649 304.714 61.165H265.902C268.909 61.165 271.792 62.3694 273.905 64.5084L305.943 96.9424C308.023 99.0479 309.19 101.888 309.19 104.848V198.364H338.082C343.561 198.364 348.001 193.923 348.001 188.445V104.847C348.001 101.888 346.835 99.0474 344.755 96.9424Z" fill="var(--fill-0, #399AEA)"/>
<path id="Vector_4" d="M266.277 129.173V86.5446C266.277 85.3125 266.767 84.1308 267.638 83.2596C268.509 82.3884 269.691 81.8989 270.923 81.8989H299.409C300.65 81.8989 301.841 82.3965 302.714 83.28L327.364 108.234C328.223 109.103 328.705 110.276 328.705 111.499V129.173C328.705 130.405 328.215 131.587 327.344 132.458C326.473 133.329 325.291 133.819 324.059 133.819H270.923C269.691 133.819 268.509 133.329 267.638 132.458C266.767 131.587 266.277 130.405 266.277 129.173Z" fill="var(--fill-0, #33D8DD)"/>
<path id="Vector_5" d="M295.196 225.517C312.034 225.517 325.685 211.867 325.685 195.028C325.685 178.19 312.034 164.539 295.196 164.539C278.357 164.539 264.707 178.19 264.707 195.028C264.707 211.867 278.357 225.517 295.196 225.517Z" fill="var(--fill-0, #3D6687)"/>
<path id="Vector_6" d="M295.194 206.808C301.699 206.808 306.973 201.534 306.973 195.028C306.973 188.522 301.699 183.249 295.194 183.249C288.688 183.249 283.414 188.522 283.414 195.028C283.414 201.534 288.688 206.808 295.194 206.808Z" fill="var(--fill-0, #CCCBCA)"/>
<path id="Vector_7" d="M0 178.992H246.986V5.56257C246.986 4.83208 246.842 4.10875 246.562 3.43387C246.283 2.75898 245.873 2.14577 245.356 1.62924C244.84 1.11271 244.227 0.70297 243.552 0.423425C242.877 0.14388 242.153 0 241.423 0H5.56256C4.08728 0 2.67242 0.586056 1.62924 1.62924C0.586054 2.67242 0 4.08728 0 5.56257L0 178.992Z" fill="var(--fill-0, #FFC06C)"/>
<path id="Vector_8" d="M241.425 0H208.176V178.992H246.987V5.56257C246.987 4.08734 246.401 2.67258 245.358 1.62944C244.315 0.586292 242.9 0.000180225 241.425 0Z" fill="var(--fill-0, #EDA558)"/>
<path id="Vector_9" d="M60.9731 225.517C77.8116 225.517 91.4619 211.867 91.4619 195.028C91.4619 178.19 77.8116 164.539 60.9731 164.539C44.1346 164.539 30.4844 178.19 30.4844 195.028C30.4844 211.867 44.1346 225.517 60.9731 225.517Z" fill="var(--fill-0, #3D6687)"/>
<path id="Vector_10" d="M60.9748 206.808C67.4805 206.808 72.7544 201.534 72.7544 195.028C72.7544 188.522 67.4805 183.249 60.9748 183.249C54.469 183.249 49.1951 188.522 49.1951 195.028C49.1951 201.534 54.469 206.808 60.9748 206.808Z" fill="var(--fill-0, #CCCBCA)"/>
<path id="Vector_11" d="M146.97 63.9586H97.3891C96.28 63.9586 95.2163 63.518 94.432 62.7337C93.6477 61.9494 93.207 60.8856 93.207 59.7765V0H151.152V59.7765C151.152 62.0874 149.279 63.9586 146.97 63.9586Z" fill="var(--fill-0, #FF4C4C)"/>
<path id="Vector_12" d="M164.458 155.926H219.378C222.269 155.926 224.613 153.583 224.613 150.691C224.613 147.799 222.269 145.455 219.378 145.455H164.458C163.07 145.455 161.738 146.007 160.756 146.989C159.774 147.97 159.223 149.302 159.223 150.691C159.223 152.079 159.774 153.411 160.756 154.393C161.738 155.375 163.07 155.926 164.458 155.926ZM164.458 125.675H219.378C220.766 125.675 222.098 125.123 223.08 124.141C224.062 123.16 224.613 121.828 224.613 120.439C224.613 119.051 224.062 117.719 223.08 116.737C222.098 115.755 220.766 115.204 219.378 115.204H164.458C161.567 115.204 159.223 117.547 159.223 120.439C159.223 123.331 161.566 125.675 164.458 125.675Z" fill="var(--fill-0, white)"/>
</g>
</svg>
