<svg preserveAspectRatio="xMidYMid meet" width="221" height="289" overflow="visible" style="display: block;" viewBox="0 0 221.106 288.738" fill="none" xmlns="http://www.w3.org/2000/svg">
<g id="Group">
<path id="Vector" d="M179.999 185.192C178.873 185.222 177.793 185.647 176.948 186.391C162.875 198.746 145.641 206.942 127.175 210.06C126.462 210.182 125.786 210.463 125.196 210.882C124.607 211.302 124.12 211.848 123.771 212.482C123.421 213.116 123.22 213.82 123.18 214.542C123.141 215.264 123.264 215.986 123.542 216.654L152.552 285.79C152.925 286.663 153.548 287.407 154.343 287.926C155.137 288.446 156.068 288.719 157.017 288.712C157.967 288.704 158.893 288.415 159.679 287.883C160.465 287.35 161.076 286.597 161.435 285.718L174.732 252.566L208.373 266.063C209.253 266.41 210.214 266.49 211.139 266.294C212.063 266.097 212.91 265.633 213.572 264.959C214.235 264.285 214.684 263.431 214.864 262.503C215.044 261.575 214.948 260.615 214.586 259.742L184.559 188.135C184.183 187.243 183.547 186.485 182.733 185.96C181.92 185.435 180.967 185.167 179.999 185.192ZM36.5496 188.189L6.54086 259.76C6.1762 260.635 6.078 261.598 6.25855 262.529C6.4391 263.459 6.89038 264.316 7.5558 264.991C8.22121 265.666 9.07114 266.129 9.99899 266.323C10.9268 266.517 11.8913 266.433 12.7715 266.081L46.3951 252.566L59.6919 285.718C61.3086 289.714 66.9217 289.75 68.5928 285.79L97.6207 216.581C97.8985 215.913 98.0223 215.192 97.9828 214.469C97.9433 213.747 97.7415 213.043 97.3924 212.409C97.0433 211.776 96.5559 211.229 95.9665 210.81C95.377 210.39 94.7007 210.109 93.9876 209.987C75.5144 206.909 58.2621 198.752 44.1608 186.427C43.5867 185.925 42.9013 185.566 42.1612 185.38C41.4211 185.194 40.6474 185.187 39.904 185.359C39.1606 185.531 38.4687 185.878 37.8855 186.37C37.3023 186.862 36.8444 187.485 36.5496 188.189Z" fill="var(--fill-0, #FF5757)"/>
<path id="Vector_2" d="M110.571 0C49.5726 0 0 49.5544 0 110.553C0 171.551 49.5544 221.069 110.553 221.069C171.551 221.069 221.106 171.551 221.106 110.553C221.106 49.5544 171.569 0 110.571 0Z" fill="var(--fill-0, #FFCB3C)"/>
<path id="Vector_3" d="M110.57 24.0151C87.6292 24.0391 65.6355 33.1655 49.4173 49.3904C33.1992 65.6154 24.0821 87.6129 24.0677 110.554C24.0677 158.273 62.8502 197.056 110.57 197.056C158.29 197.056 197.072 158.273 197.072 110.554C197.062 87.6097 187.948 65.6076 171.729 49.3787C155.51 33.1498 133.514 24.0392 110.57 24.0151Z" fill="var(--fill-0, #FFEA54)"/>
<path id="Vector_4" d="M110.533 55.3501C109.613 55.4176 108.732 55.748 107.995 56.3019C107.257 56.8558 106.695 57.6099 106.373 58.4745L93.6578 92.2071L57.5638 93.297C56.585 93.3356 55.6414 93.6718 54.8587 94.2609C54.0761 94.8499 53.4918 95.6636 53.1839 96.5935C52.8759 97.5233 52.8589 98.5249 53.1352 99.4647C53.4115 100.404 53.9678 101.238 54.73 101.853L82.8314 124.45L72.768 159.073C72.4955 160.018 72.5188 161.023 72.8349 161.954C73.151 162.885 73.7447 163.697 74.536 164.281C75.3274 164.865 76.2785 165.192 77.2614 165.219C78.2443 165.246 79.2119 164.971 80.034 164.431L110.152 144.632L139.997 164.922C140.811 165.471 141.773 165.758 142.755 165.745C143.737 165.732 144.692 165.418 145.49 164.847C146.289 164.276 146.894 163.474 147.224 162.549C147.554 161.624 147.593 160.62 147.336 159.672L137.872 124.85L166.355 102.779C167.137 102.18 167.716 101.354 168.014 100.415C168.313 99.4757 168.315 98.4675 168.022 97.5265C167.729 96.5856 167.154 95.7573 166.375 95.1536C165.596 94.5499 164.65 94.1998 163.666 94.1507L127.59 92.4795L115.383 58.5108C115.03 57.5258 114.366 56.6827 113.491 56.1091C112.615 55.5355 111.577 55.2808 110.533 55.3501Z" fill="var(--fill-0, #FEAA2B)"/>
</g>
</svg>
