<svg preserveAspectRatio="xMidYMid meet" width="305" height="305" overflow="visible" style="display: block;" viewBox="0 0 304.733 304.733" fill="none" xmlns="http://www.w3.org/2000/svg">
<g id="Group">
<path id="Vector" d="M283.717 304.733H21.0161C15.4423 304.733 10.0967 302.519 6.15547 298.578C2.21419 294.637 0 289.291 0 283.717V0.000258999H220.669L283.717 63.0485V304.733Z" fill="var(--fill-0, #E5E4D1)"/>
<path id="Vector_2" d="M283.716 63.0482H220.668V0L283.716 63.0482Z" fill="var(--fill-0, #C6C3A7)"/>
<path id="Vector_3" d="M231.178 10.5086H283.718V63.0488L231.178 10.5086Z" fill="var(--fill-0, #E5E4D1)"/>
<path id="Vector_4" d="M283.717 26.2705H304.733V283.717C304.733 289.291 302.519 294.637 298.578 298.578C294.636 302.519 289.291 304.733 283.717 304.733V26.2705Z" fill="var(--fill-0, #D3D1B6)"/>
<g id="Group_2">
<path id="Vector_5" d="M52.5413 57.7948H50.9283L35.1662 15.7627H15.7631V68.3029H26.2712V26.2707H27.8842L43.6462 68.3029H63.0493V15.7627H52.5413V57.7948ZM152.368 57.7948H150.671L141.487 34.8295C141.097 33.8528 140.424 33.0153 139.554 32.4253C138.684 31.8353 137.657 31.5199 136.606 31.5199C135.554 31.5199 134.527 31.8353 133.657 32.4253C132.787 33.0153 132.114 33.8528 131.725 34.8295L122.541 57.7948H120.844V15.7627H110.335V63.0488C110.335 64.4423 110.889 65.7787 111.874 66.764C112.86 67.7493 114.196 68.3029 115.59 68.3029H126.098C127.148 68.3032 128.175 67.9885 129.045 67.3994C129.915 66.8103 130.589 65.9739 130.979 64.9981L136.606 50.9226L142.233 64.9981C142.622 65.9739 143.296 66.8103 144.166 67.3994C145.036 67.9885 146.063 68.3032 147.114 68.3029H157.622C159.015 68.3029 160.351 67.7493 161.337 66.764C162.322 65.7787 162.876 64.4423 162.876 63.0488V15.7627H152.368V57.7948ZM73.5574 68.3029H99.8274V57.7948H84.0654V47.2868H99.8274V36.7787H84.0654V26.2707H99.8274V15.7627H73.5574V68.3029ZM204.908 26.2707V15.7627H178.638C177.244 15.7627 175.908 16.3162 174.923 17.3015C173.937 18.2868 173.384 19.6232 173.384 21.0167V42.0328C173.384 43.4262 173.937 44.7626 174.923 45.7479C175.908 46.7332 177.244 47.2868 178.638 47.2868H194.4V57.7948H173.384V68.3029H199.654C201.047 68.3029 202.384 67.7493 203.369 66.764C204.354 65.7787 204.908 64.4423 204.908 63.0488V42.0328C204.908 40.6393 204.354 39.3029 203.369 38.3176C202.384 37.3323 201.047 36.7787 199.654 36.7787H183.892V26.2707H204.908Z" fill="var(--fill-0, #D75745)"/>
</g>
<path id="Vector_6" d="M15.7629 78.8108H267.956V89.3189H15.7629V78.8108Z" fill="var(--fill-0, #2D75BB)"/>
<path id="Vector_7" d="M21.0163 110.335H136.605V173.383H21.0163V110.335Z" fill="var(--fill-0, #F9BB4B)"/>
<path id="Vector_8" d="M15.7616 210.161H89.3179V220.669H15.7616V210.161ZM15.7616 189.145H141.858V199.653H15.7616V189.145ZM15.7616 231.177H131.35V241.685H15.7616V231.177Z" fill="var(--fill-0, #394D5C)"/>
<path id="Vector_9" d="M262.701 236.431H189.144V194.399H262.701V236.431Z" fill="var(--fill-0, #F9BB4B)"/>
<path id="Vector_10" d="M262.699 278.463H21.0146V257.447H262.699V278.463Z" fill="var(--fill-0, #2D75BB)"/>
<path id="Vector_11" d="M157.621 110.335H262.702V131.351H157.621V110.335ZM157.621 152.367H262.702V173.383H157.621V152.367Z" fill="var(--fill-0, #F9BB4B)"/>
<path id="Vector_12" d="M152.368 189.146H173.385V199.654H152.368V189.146ZM99.8283 210.162H173.385V220.67H99.8283V210.162ZM141.86 231.178H173.385V241.686H141.86V231.178Z" fill="var(--fill-0, #394D5C)"/>
</g>
</svg>
